/* XPM */
static char * collectible_1_xpm[] = {
"64 64 232 2",
"  	c #586738",
". 	c #536135",
"+ 	c #536134",
"@ 	c #515E34",
"# 	c #525049",
"$ 	c #52504B",
"% 	c #565449",
"& 	c #687534",
"* 	c #505E34",
"= 	c #525048",
"- 	c #535049",
"; 	c #54514A",
"> 	c #535148",
", 	c #515F34",
"' 	c #57544A",
") 	c #E9C67D",
"! 	c #F0CE84",
"~ 	c #E7C47C",
"{ 	c #5D5B4B",
"] 	c #68763F",
"^ 	c #576638",
"/ 	c #E3BD75",
"( 	c #EDC57D",
"_ 	c #EFC97F",
": 	c #E6C17B",
"< 	c #56534A",
"[ 	c #57544B",
"} 	c #EBCC83",
"| 	c #F3CC7E",
"1 	c #FBDA90",
"2 	c #F7D083",
"3 	c #EBC782",
"4 	c #56534B",
"5 	c #546236",
"6 	c #536235",
"7 	c #535149",
"8 	c #E9C47D",
"9 	c #F6CE84",
"0 	c #FDE59D",
"a 	c #F7D085",
"b 	c #F3CB82",
"c 	c #D7B374",
"d 	c #565447",
"e 	c #627036",
"f 	c #536035",
"g 	c #ECD78D",
"h 	c #FCDB92",
"i 	c #FAE198",
"j 	c #F4CF82",
"k 	c #F4CC80",
"l 	c #EDC982",
"m 	c #54514B",
"n 	c #687040",
"o 	c #62683D",
"p 	c #546235",
"q 	c #646D3E",
"r 	c #55514C",
"s 	c #EDC780",
"t 	c #F8D588",
"u 	c #F5CE85",
"v 	c #FADD96",
"w 	c #F4CC81",
"x 	c #E0B876",
"y 	c #53504A",
"z 	c #EFCB82",
"A 	c #FEE09B",
"B 	c #F5D187",
"C 	c #F4CC82",
"D 	c #F6CE82",
"E 	c #EFC981",
"F 	c #55504B",
"G 	c #534F4A",
"H 	c #56524B",
"I 	c #55504C",
"J 	c #EDC882",
"K 	c #F3CE82",
"L 	c #F3CC81",
"M 	c #F3CA84",
"N 	c #F5CD84",
"O 	c #DCB675",
"P 	c #52504A",
"Q 	c #D1AB6F",
"R 	c #F7CE84",
"S 	c #F0C57D",
"T 	c #F1CB81",
"U 	c #F4CB83",
"V 	c #F0C87F",
"W 	c #EDC980",
"X 	c #EBC57F",
"Y 	c #EDC881",
"Z 	c #EDCB82",
"` 	c #EEC981",
" .	c #EECB81",
"..	c #ECC982",
"+.	c #EFC781",
"@.	c #F2CA80",
"#.	c #F1CC80",
"$.	c #F2CC82",
"%.	c #F0C880",
"&.	c #F1C983",
"*.	c #CAA369",
"=.	c #504E46",
"-.	c #555249",
";.	c #E8C580",
">.	c #F6CD82",
",.	c #F2CA81",
"'.	c #F4CD81",
").	c #F3CD82",
"!.	c #FBE29C",
"~.	c #FFE8A4",
"{.	c #FFE9A6",
"].	c #FEE8A5",
"^.	c #FCE8A6",
"/.	c #FBDD95",
"(.	c #FCDF97",
"_.	c #F3CE85",
":.	c #F4CE82",
"<.	c #F2CA82",
"[.	c #F3CE83",
"}.	c #EEC780",
"|.	c #AF8D5D",
"1.	c #535048",
"2.	c #58554B",
"3.	c #EBC67D",
"4.	c #F6CA82",
"5.	c #F3C981",
"6.	c #F4CB84",
"7.	c #F3CC84",
"8.	c #F3CC85",
"9.	c #F4CE85",
"0.	c #F8D58A",
"a.	c #F4D189",
"b.	c #FAD994",
"c.	c #F1CD85",
"d.	c #F0CA82",
"e.	c #F4CB81",
"f.	c #F0C980",
"g.	c #FCDC8C",
"h.	c #C29D66",
"i.	c #534F49",
"j.	c #596739",
"k.	c #E5BF7C",
"l.	c #F2CB82",
"m.	c #F1CA82",
"n.	c #F0C680",
"o.	c #EEC680",
"p.	c #F1C781",
"q.	c #EFC882",
"r.	c #EEC87F",
"s.	c #F1C780",
"t.	c #EEC67E",
"u.	c #F0C780",
"v.	c #F1CA80",
"w.	c #F2C97E",
"x.	c #CCA56B",
"y.	c #575549",
"z.	c #65703E",
"A.	c #EAC984",
"B.	c #F5CC82",
"C.	c #F2C97F",
"D.	c #C19461",
"E.	c #C19760",
"F.	c #C39C61",
"G.	c #C99E66",
"H.	c #C79D65",
"I.	c #C69B66",
"J.	c #C39C64",
"K.	c #C49A64",
"L.	c #BD9460",
"M.	c #CEA669",
"N.	c #F3C67F",
"O.	c #F0C77E",
"P.	c #CFA86C",
"Q.	c #F1CE87",
"R.	c #F5CD82",
"S.	c #F0C981",
"T.	c #C29760",
"U.	c #524D4A",
"V.	c #514E49",
"W.	c #524E49",
"X.	c #504E49",
"Y.	c #524E4B",
"Z.	c #CFA76B",
"`.	c #F3C980",
" +	c #DBB272",
".+	c #504F48",
"++	c #BB9563",
"@+	c #E2B877",
"#+	c #EFC980",
"$+	c #F2CB7F",
"%+	c #F0C87E",
"&+	c #C99F67",
"*+	c #4F4C49",
"=+	c #DCB270",
"-+	c #F9D084",
";+	c #EEC57D",
">+	c #EDC67D",
",+	c #CCA36A",
"'+	c #524F49",
")+	c #555148",
"!+	c #DFB774",
"~+	c #E3B772",
"{+	c #DFB26F",
"]+	c #D9AC6E",
"^+	c #BB9262",
"/+	c #545247",
"(+	c #546336",
"_+	c #524F47",
":+	c #CCA369",
"<+	c #CDA066",
"[+	c #CDA168",
"}+	c #CCA064",
"|+	c #CDA266",
"1+	c #AB885E",
"2+	c #514F47",
"3+	c #595649",
"4+	c #C49960",
"5+	c #CB9E65",
"6+	c #C19762",
"7+	c #585548",
"8+	c #677434",
"9+	c #545248",
"0+	c #B28D5A",
"a+	c #C09560",
"b+	c #565348",
"c+	c #677534",
"d+	c #555348",
"e+	c #504E4A",
"f+	c #514E48",
"g+	c #514D49",
"h+	c #555347",
"i+	c #687634",
"                                                                                                                                ",
"                                                                                                                                ",
"                                                                                                                                ",
"                                                                                                                                ",
"                                                                                                                                ",
"                                                                                                                                ",
"                                                                                                                                ",
"                                                                                                                                ",
"                                                                                                                                ",
"                                                                                                                                ",
"                                                                                                                                ",
"                                                                                                                                ",
"                                                                                                                                ",
"                                                                                                                                ",
"                                                                                                                                ",
"                                                                                                                                ",
"                                                                                                                                ",
"                                                                                                                                ",
"                                                                                                                                ",
"                                                                                                                                ",
"                                                                                                                                ",
"                                                                                                                                ",
"                                                                                                                                ",
"                                                . + .                     . + + .                                               ",
"                                              @ # $ % &                 * = - ; > ,                                             ",
"                                            * ' ) ! ~ { ]           ^ , ' / ( _ : < @                                           ",
"                                        ^ @ [ } | 1 2 3 4 5         6 7 8 9 0 a b c d e                                         ",
"                                        f 7 g h i j k l m n 5 o 6 p q r s t u v w x y p                                         ",
"                                        . m z A B C D E F ; G H y y m I J K L M N O P .                                         ",
"                                        . = Q R S T U V W X Y Z `  ...+.@.#.$.%.&.*.=.p                                         ",
"                                          @ -.;.>.,.'.).!.~.{.].^./.(._.:.<.[.}.|.1.@ ^                                         ",
"                                            , 2.3.4.5.6.7.8.9.0.a.b.c.d.e.f.g.h.i., j.                                          ",
"                                        ^ , ' k.l.m.m.n.+.o.p.f.q.r.s.t.u.v.V w.x.y.z.                                          ",
"                                        . 7 A.2 b B.C.D.E.F.G.H.I.J.K.L.M.V N.@.O.P.7 .                                         ",
"                                        . m Q.R.S.C L T.U.V.W.V.V.W.X.Y.Z.U `.@.v. +V..                                         ",
"                                        . .+++@+#+$+%+&+*+, 6 6 6 p @ # =+-+@.;+>+,+'+.                                         ",
"                                          @ )+!+~+{+]+^+/+(+        . _+:+<+[+}+|+1+2+p                                         ",
"                                            @ 3+4+5+6+7+8+^           @ 9+0+a+6+^+b+, ^                                         ",
"                                              c+d+e+2+, ^               , f+'+g+h+i+^                                           ",
"                                                . 6 . ^                   . 6 6 . ^                                             ",
"                                                                                                                                ",
"                                                                                                                                ",
"                                                                                                                                ",
"                                                                                                                                ",
"                                                                                                                                ",
"                                                                                                                                ",
"                                                                                                                                ",
"                                                                                                                                ",
"                                                                                                                                ",
"                                                                                                                                ",
"                                                                                                                                ",
"                                                                                                                                ",
"                                                                                                                                ",
"                                                                                                                                ",
"                                                                                                                                ",
"                                                                                                                                ",
"                                                                                                                                ",
"                                                                                                                                ",
"                                                                                                                                ",
"                                                                                                                                ",
"                                                                                                                                ",
"                                                                                                                                ",
"                                                                                                                                ",
"                                                                                                                                "};
