/* XPM */
static char * collectible_2_xpm[] = {
"64 64 247 2",
"  	c #586738",
". 	c #556336",
"+ 	c #556337",
"@ 	c #546336",
"# 	c #526035",
"$ 	c #373933",
"% 	c #373834",
"& 	c #373734",
"* 	c #353734",
"= 	c #383934",
"- 	c #656A34",
"; 	c #637135",
"> 	c #3D3E33",
", 	c #353735",
"' 	c #D3782D",
") 	c #D57425",
"! 	c #D97A2D",
"~ 	c #DA7B2D",
"{ 	c #D97A2E",
"] 	c #484034",
"^ 	c #383A34",
"/ 	c #526034",
"( 	c #536135",
"_ 	c #464633",
": 	c #D5792E",
"< 	c #DB7C2D",
"[ 	c #E47F2C",
"} 	c #E88230",
"| 	c #E88331",
"1 	c #DF7924",
"2 	c #D27325",
"3 	c #9A4F21",
"4 	c #3B3A34",
"5 	c #616E39",
"6 	c #546335",
"7 	c #393933",
"8 	c #A45427",
"9 	c #DE7724",
"0 	c #DF7825",
"a 	c #E27E2C",
"b 	c #E27E2D",
"c 	c #DD7725",
"d 	c #DC7724",
"e 	c #A6531F",
"f 	c #B35A23",
"g 	c #C26932",
"h 	c #474438",
"i 	c #5F6A38",
"j 	c #383836",
"k 	c #D67525",
"l 	c #E37E2B",
"m 	c #E17E2C",
"n 	c #DD7824",
"o 	c #B75C23",
"p 	c #9F4F1F",
"q 	c #B35A24",
"r 	c #C86931",
"s 	c #3D3A37",
"t 	c #656C3B",
"u 	c #546235",
"v 	c #3B3A33",
"w 	c #CD7226",
"x 	c #E47F2B",
"y 	c #E68231",
"z 	c #E58130",
"A 	c #DC7725",
"B 	c #B65B25",
"C 	c #9E4E1F",
"D 	c #B85D29",
"E 	c #B95E29",
"F 	c #824328",
"G 	c #454038",
"H 	c #5F6D39",
"I 	c #393936",
"J 	c #D97624",
"K 	c #E37F2C",
"L 	c #DD7825",
"M 	c #E17D2B",
"N 	c #D0732F",
"O 	c #DB7624",
"P 	c #B35A25",
"Q 	c #9F4F20",
"R 	c #C86A31",
"S 	c #B95F29",
"T 	c #C96931",
"U 	c #B05826",
"V 	c #3B3835",
"W 	c #546135",
"X 	c #393935",
"Y 	c #D77525",
"Z 	c #E47E2C",
"` 	c #DB7725",
" .	c #DA7524",
"..	c #B35925",
"+.	c #C86932",
"@.	c #CB6B32",
"#.	c #A05121",
"$.	c #3D3935",
"%.	c #536034",
"&.	c #3A3A33",
"*.	c #A85826",
"=.	c #E27D2C",
"-.	c #DD7724",
";.	c #B75C24",
">.	c #9E4F26",
",.	c #7B3F27",
"'.	c #C76932",
").	c #7A412A",
"!.	c #974F27",
"~.	c #3D3A35",
"{.	c #AF5824",
"].	c #E17E2B",
"^.	c #DC7824",
"/.	c #A4521F",
"(.	c #A04F1F",
"_.	c #AF5725",
":.	c #AD5625",
"<.	c #985028",
"[.	c #994D1F",
"}.	c #9A5025",
"|.	c #3E3B37",
"1.	c #536235",
"2.	c #3A3835",
"3.	c #E37E2C",
"4.	c #E18034",
"5.	c #D0732E",
"6.	c #DB7724",
"7.	c #B05823",
"8.	c #A1501F",
"9.	c #864726",
"0.	c #9E4F20",
"a.	c #423A34",
"b.	c #4E5C33",
"c.	c #586638",
"d.	c #606D39",
"e.	c #3D3E36",
"f.	c #DB7A2C",
"g.	c #DD7925",
"h.	c #BC6029",
"i.	c #C66831",
"j.	c #874526",
"k.	c #7C4128",
"l.	c #6E3D2A",
"m.	c #9D4F1F",
"n.	c #B15825",
"o.	c #434236",
"p.	c #CE7225",
"q.	c #CA6C31",
"r.	c #B55B24",
"s.	c #BA5F29",
"t.	c #B75E29",
"u.	c #834428",
"v.	c #9A4C1F",
"w.	c #9A4D1F",
"x.	c #9A4E1F",
"y.	c #A0501F",
"z.	c #B05723",
"A.	c #473D35",
"B.	c #3B3C35",
"C.	c #DFC07E",
"D.	c #E07B26",
"E.	c #DC7623",
"F.	c #CB6B31",
"G.	c #C96A32",
"H.	c #9F4D20",
"I.	c #9B4E1F",
"J.	c #A15323",
"K.	c #B25924",
"L.	c #A05124",
"M.	c #A15020",
"N.	c #333433",
"O.	c #E2C886",
"P.	c #FAD68A",
"Q.	c #E3AC66",
"R.	c #C96E2C",
"S.	c #B45B26",
"T.	c #B25824",
"U.	c #9F5124",
"V.	c #A35424",
"W.	c #453C35",
"X.	c #3E3A36",
"Y.	c #413C36",
"Z.	c #676E39",
"`.	c #464634",
" +	c #DFBD7D",
".+	c #E9C680",
"++	c #E8C682",
"@+	c #FBD790",
"#+	c #F9DE98",
"$+	c #D7A968",
"%+	c #D69F62",
"&+	c #A86E3A",
"*+	c #3F3736",
"=+	c #3F3A36",
"-+	c #413B36",
";+	c #403B36",
">+	c #403C36",
",+	c #4F5C33",
"'+	c #515F34",
")+	c #B89166",
"!+	c #F3CA82",
"~+	c #ECC17A",
"{+	c #F3CB84",
"]+	c #EEC47D",
"^+	c #E2B974",
"/+	c #CFA164",
"(+	c #C69960",
"_+	c #474239",
":+	c #6B7933",
"<+	c #505F34",
"[+	c #BA9361",
"}+	c #E6B877",
"|+	c #F1C57F",
"1+	c #F1C983",
"2+	c #EAC079",
"3+	c #E3B874",
"4+	c #D3AB6C",
"5+	c #44403A",
"6+	c #4E5B33",
"7+	c #383835",
"8+	c #AF895D",
"9+	c #D0A66A",
"0+	c #CCA167",
"a+	c #D4A76E",
"b+	c #DDAF73",
"c+	c #D2AA6B",
"d+	c #48433B",
"e+	c #686F3D",
"f+	c #626F3C",
"g+	c #45443B",
"h+	c #403D39",
"i+	c #3F3B38",
"j+	c #CAA168",
"k+	c #C9A169",
"l+	c #CFA569",
"m+	c #3C3B37",
"n+	c #525F34",
"o+	c #4F5D33",
"p+	c #363735",
"q+	c #C19B67",
"r+	c #BC9360",
"s+	c #D2A867",
"t+	c #413F39",
"u+	c #616F3C",
"v+	c #46453C",
"w+	c #44413A",
"x+	c #515E34",
"                                                                                                                                ",
"                                                                                                                                ",
"                                                                                                                                ",
"                                                                                                                                ",
"                                                                                                                                ",
"                                                                                                                                ",
"                                                                                                                                ",
"                                                                                                                                ",
"                                                                                                                                ",
"                                                                                                                                ",
"                                                                                                                                ",
"                                                                                                                                ",
"                                                                                                                                ",
"                                                                                                                                ",
"                                                                                                                                ",
"                                                                                                                                ",
"                                                                                                                                ",
"                                                                                                                                ",
"                                                                                                                                ",
"                                                                                                                                ",
"                                                                  . . . . +                                                     ",
"                                                              @ # $ % & * = - +                                                 ",
"                                                            ; > , ' ) ! ~ { ] ^ /                                               ",
"                                                          ( _ : < [ } | [ 1 2 3 4 5                                             ",
"                                                        6 7 8 9 0 a b a c d e f g h i                                           ",
"                                                        / j k l d m d a n o p q r s t                                           ",
"                                                      u v w x y z A d d B p C D E F G H                                         ",
"                                                      u I J K y L M N O P Q R S T U V W                                         ",
"                                                      / X Y Z a d d ` n  .f ..+.@.#.$.%.                                        ",
"                                                    u &.*.=.y A d a n -.;.>.,.'.).!.~.%.                                        ",
"                                                    u I {.=.L ].^.n ^./.(._.:.<.[.}.|.#                                         ",
"                                                    1.2.) 3.a 4.5.6./.C 7.E 8.9.0.a.b.c.                                        ",
"                                                    d.e.f.[ l g.6.h.i.j.k.l.m.m.n.|.(                                           ",
"                                                  ( o.p.[ L q.r.s.t.u.v.w.x.y.z.A.b.                                            ",
"                                            @ . # B.C.D.E.F.G.n.C H.I.J.K.L.M.a.b.                                              ",
"                                          ; > N.& O.P.Q.R.@.S...T.U.T.V.W.X.Y.Z.                                                ",
"                                        ( `. +.+++@+#+$+%+&+*+=+-+;+Y.>+,+'+'+                                                  ",
"                                      u 4 )+!+~+{+]+^+/+(+_+:+/ <+'+'+'+                                                        ",
"                                      u I [+}+|+1+2+3+4+5+6+                                                                    ",
"                                      1.7+8+9+0+a+b+c+d+e+                                                                      ",
"                                        f+g+h+i+j+k+l+m+u                                                                       ",
"                                          n+o+p+q+r+s+t+#                                                                       ",
"                                              u+v+h+w+,+                                                                        ",
"                                                x+'+'+                                                                          ",
"                                                                                                                                ",
"                                                                                                                                ",
"                                                                                                                                ",
"                                                                                                                                ",
"                                                                                                                                ",
"                                                                                                                                ",
"                                                                                                                                ",
"                                                                                                                                ",
"                                                                                                                                ",
"                                                                                                                                ",
"                                                                                                                                ",
"                                                                                                                                ",
"                                                                                                                                ",
"                                                                                                                                ",
"                                                                                                                                ",
"                                                                                                                                ",
"                                                                                                                                ",
"                                                                                                                                ",
"                                                                                                                                ",
"                                                                                                                                "};
