/* XPM */
static char * dog_xpm[] = {
"64 64 542 2",
"  	c #586738",
". 	c #536135",
"+ 	c #434D2A",
"@ 	c #404A29",
"# 	c #424D2B",
"$ 	c #3E4827",
"% 	c #4D5A31",
"& 	c #556437",
"* 	c #313922",
"= 	c #1E1E1B",
"- 	c #1C1D1A",
"; 	c #161714",
"> 	c #252623",
", 	c #40403C",
"' 	c #363B2B",
") 	c #323A22",
"! 	c #1E1F1D",
"~ 	c #222222",
"{ 	c #1E1E1E",
"] 	c #2C2C2C",
"^ 	c #6A6966",
"/ 	c #A19F9A",
"( 	c #82817D",
"_ 	c #393E2F",
": 	c #4D5B32",
"< 	c #3C4628",
"[ 	c #1D1E1C",
"} 	c #242424",
"| 	c #202020",
"1 	c #171818",
"2 	c #474644",
"3 	c #9A9993",
"4 	c #C5C3BE",
"5 	c #A09F9B",
"6 	c #575654",
"7 	c #2F3324",
"8 	c #47532E",
"9 	c #576637",
"0 	c #373F24",
"a 	c #1D1E1D",
"b 	c #101011",
"c 	c #3C3B39",
"d 	c #929089",
"e 	c #BDBBB7",
"f 	c #8F8E8C",
"g 	c #73716E",
"h 	c #706E6A",
"i 	c #3A3E2E",
"j 	c #404B29",
"k 	c #434F2A",
"l 	c #4A562F",
"m 	c #566437",
"n 	c #39412A",
"o 	c #363734",
"p 	c #2C3121",
"q 	c #556336",
"r 	c #3E4727",
"s 	c #1D1D1C",
"t 	c #1D1D1D",
"u 	c #1F1F1E",
"v 	c #484642",
"w 	c #898781",
"x 	c #ACABA6",
"y 	c #9D9B97",
"z 	c #9B9994",
"A 	c #ACAAA4",
"B 	c #7A7976",
"C 	c #292A27",
"D 	c #0D0E0C",
"E 	c #2C331E",
"F 	c #566537",
"G 	c #373E27",
"H 	c #5A5A57",
"I 	c #545351",
"J 	c #343C24",
"K 	c #546336",
"L 	c #45512C",
"M 	c #262C19",
"N 	c #171817",
"O 	c #202021",
"P 	c #131314",
"Q 	c #333331",
"R 	c #6F6D67",
"S 	c #93918A",
"T 	c #A5A29D",
"U 	c #ABA8A3",
"V 	c #AAA8A3",
"W 	c #AEACA6",
"X 	c #7B7A76",
"Y 	c #333231",
"Z 	c #252A1A",
"` 	c #556337",
" .	c #39402A",
"..	c #696864",
"+.	c #767470",
"@.	c #363A2C",
"#.	c #526034",
"$.	c #546235",
"%.	c #434E2B",
"&.	c #424D2A",
"*.	c #333A23",
"=.	c #31322B",
"-.	c #343431",
";.	c #252525",
">.	c #111112",
",.	c #181818",
"'.	c #504F4B",
").	c #7E7C75",
"!.	c #8F8D86",
"~.	c #A3A19B",
"{.	c #AAA8A4",
"].	c #A8A6A1",
"^.	c #A8A5A1",
"/.	c #B2B0AB",
"(.	c #B9B7B1",
"_.	c #706E6C",
":.	c #2C311F",
"<.	c #3B4526",
"[.	c #484844",
"}.	c #878580",
"|.	c #504F4A",
"1.	c #363F23",
"2.	c #414C29",
"3.	c #404C29",
"4.	c #3F4A29",
"5.	c #4C5A31",
"6.	c #45512B",
"7.	c #343B26",
"8.	c #3A3B35",
"9.	c #34352F",
"0.	c #4E4D48",
"a.	c #807E78",
"b.	c #82807A",
"c.	c #55534F",
"d.	c #2E2D2B",
"e.	c #454542",
"f.	c #74726C",
"g.	c #827F78",
"h.	c #74726B",
"i.	c #7D7B76",
"j.	c #9E9C96",
"k.	c #A5A39D",
"l.	c #A2A09A",
"m.	c #A7A49D",
"n.	c #A2A09B",
"o.	c #61605E",
"p.	c #272D1E",
"q.	c #374124",
"r.	c #4C4B48",
"s.	c #696763",
"t.	c #323827",
"u.	c #303722",
"v.	c #31322A",
"w.	c #32322D",
"x.	c #31322C",
"y.	c #32322C",
"z.	c #32322E",
"A.	c #303424",
"B.	c #44502C",
"C.	c #424D29",
"D.	c #45502C",
"E.	c #323922",
"F.	c #33342E",
"G.	c #494844",
"H.	c #575651",
"I.	c #686661",
"J.	c #8F8D87",
"K.	c #ADABA5",
"L.	c #A4A29B",
"M.	c #84827B",
"N.	c #6E6C66",
"O.	c #77756E",
"P.	c #84827A",
"Q.	c #404238",
"R.	c #393A33",
"S.	c #5F5E59",
"T.	c #6A6963",
"U.	c #676660",
"V.	c #6B6964",
"W.	c #4B4B46",
"X.	c #282B21",
"Y.	c #363E23",
"Z.	c #536134",
"`.	c #363C27",
" +	c #72716D",
".+	c #716F6C",
"++	c #2F3422",
"@+	c #2B2C26",
"#+	c #4F4F4A",
"$+	c #7D7B75",
"%+	c #83817B",
"&+	c #8B8983",
"*+	c #85837D",
"=+	c #5E5C58",
"-+	c #2C2D27",
";+	c #30302B",
">+	c #2C2E27",
",+	c #51504B",
"'+	c #72716B",
")+	c #4D4C48",
"!+	c #20201F",
"~+	c #575653",
"{+	c #AAA7A2",
"]+	c #B4B2AD",
"^+	c #9F9D98",
"/+	c #8A8882",
"(+	c #817F77",
"_+	c #817F78",
":+	c #828079",
"<+	c #595853",
"[+	c #2E3320",
"}+	c #3A4425",
"|+	c #2B3020",
"1+	c #272B1F",
"2+	c #282C1F",
"3+	c #333A22",
"4+	c #4F5D32",
"5+	c #4F504B",
"6+	c #92908C",
"7+	c #585852",
"8+	c #3F4A2A",
"9+	c #30391F",
"0+	c #393936",
"a+	c #7B7973",
"b+	c #97958E",
"c+	c #A9A6A1",
"d+	c #989691",
"e+	c #81807C",
"f+	c #97958F",
"g+	c #B2B0A9",
"h+	c #9A9893",
"i+	c #7D7C76",
"j+	c #817F79",
"k+	c #8C8A83",
"l+	c #7F7D77",
"m+	c #989690",
"n+	c #767570",
"o+	c #1C1C1C",
"p+	c #101112",
"q+	c #5D5C5A",
"r+	c #A4A29D",
"s+	c #9E9C97",
"t+	c #76746C",
"u+	c #7A7871",
"v+	c #86847C",
"w+	c #585752",
"x+	c #2A2F1D",
"y+	c #4F5C32",
"z+	c #505D33",
"A+	c #4E5C32",
"B+	c #313920",
"C+	c #656461",
"D+	c #969590",
"E+	c #404436",
"F+	c #3F4B28",
"G+	c #373E25",
"H+	c #343430",
"I+	c #6A6965",
"J+	c #A7A59F",
"K+	c #B0AEA8",
"L+	c #222223",
"M+	c #434342",
"N+	c #908E8A",
"O+	c #B3B0AA",
"P+	c #A19F99",
"Q+	c #83827D",
"R+	c #8F8D89",
"S+	c #ABA9A2",
"T+	c #B1AFA9",
"U+	c #807F7B",
"V+	c #474746",
"W+	c #666562",
"X+	c #918F8A",
"Y+	c #8E8C85",
"Z+	c #8E8C86",
"`+	c #9C9A95",
" @	c #96948F",
".@	c #7B7971",
"+@	c #76746D",
"@@	c #44443F",
"#@	c #353C24",
"$@	c #41433B",
"%@	c #918F8B",
"&@	c #7B7A74",
"*@	c #2E3128",
"=@	c #252523",
"-@	c #4F4E4A",
";@	c #7C7A75",
">@	c #ADAAA5",
",@	c #A7A5A0",
"'@	c #ABA9A4",
")@	c #7E7D7A",
"!@	c #252524",
"~@	c #020303",
"{@	c #50504D",
"]@	c #AAA8A2",
"^@	c #A8A6A2",
"/@	c #605F5D",
"(@	c #575755",
"_@	c #A6A49F",
":@	c #B6B4AF",
"<@	c #969490",
"[@	c #878681",
"}@	c #9D9B96",
"|@	c #9B9993",
"1@	c #8F8D85",
"2@	c #5E5C57",
"3@	c #2B2E20",
"4@	c #516034",
"5@	c #586638",
"6@	c #3F4929",
"7@	c #4C4E46",
"8@	c #908F8A",
"9@	c #41413E",
"0@	c #171717",
"a@	c #53524F",
"b@	c #B8B6B0",
"c@	c #ACAAA5",
"d@	c #706F6B",
"e@	c #393938",
"f@	c #62605E",
"g@	c #ABA9A3",
"h@	c #7E7D79",
"i@	c #000001",
"j@	c #454543",
"k@	c #A7A49F",
"l@	c #5C5B59",
"m@	c #272626",
"n@	c #565553",
"o@	c #A9A7A2",
"p@	c #797773",
"q@	c #42423E",
"r@	c #353E23",
"s@	c #3E4928",
"t@	c #4E4F48",
"u@	c #888783",
"v@	c #3C3C3B",
"w@	c #646360",
"x@	c #84827F",
"y@	c #91908B",
"z@	c #ACA9A4",
"A@	c #898680",
"B@	c #A4A29E",
"C@	c #0A0A0A",
"D@	c #151616",
"E@	c #6C6A68",
"F@	c #8A8884",
"G@	c #282828",
"H@	c #0F0F10",
"I@	c #63615F",
"J@	c #63625F",
"K@	c #1E1E1F",
"L@	c #4F4E4D",
"M@	c #918F89",
"N@	c #595954",
"O@	c #373E26",
"P@	c #546236",
"Q@	c #3E4728",
"R@	c #2E3224",
"S@	c #474841",
"T@	c #84827E",
"U@	c #757470",
"V@	c #262626",
"W@	c #434242",
"X@	c #8F8E8A",
"Y@	c #94928C",
"Z@	c #99968F",
"`@	c #B2B0AA",
" #	c #BAB8B2",
".#	c #858380",
"+#	c #41403E",
"@#	c #5E5E5B",
"##	c #9F9D99",
"$#	c #A9A7A1",
"%#	c #55544F",
"&#	c #676664",
"*#	c #767571",
"=#	c #131313",
"-#	c #0C0D0D",
";#	c #686664",
">#	c #A3A09A",
",#	c #272B1E",
"'#	c #2F371F",
")#	c #6D6C68",
"!#	c #BFBDB7",
"~#	c #09090A",
"{#	c #0A0A0C",
"]#	c #5E5D5B",
"^#	c #96948E",
"/#	c #5B5954",
"(#	c #6C6B66",
"_#	c #7C7B77",
":#	c #A3A19C",
"<#	c #A8A6A0",
"[#	c #908E86",
"}#	c #88867F",
"|#	c #B3B1AC",
"1#	c #7A7875",
"2#	c #383736",
"3#	c #41413D",
"4#	c #333D21",
"5#	c #46522D",
"6#	c #3B3D34",
"7#	c #95938E",
"8#	c #8C8A85",
"9#	c #323231",
"0#	c #010103",
"a#	c #9C9993",
"b#	c #696862",
"c#	c #1F1F1C",
"d#	c #24281B",
"e#	c #4C4D45",
"f#	c #8B8985",
"g#	c #7C7A77",
"h#	c #6B6A66",
"i#	c #AFADA8",
"j#	c #5B5A56",
"k#	c #576638",
"l#	c #323921",
"m#	c #5F5D5B",
"n#	c #ADABA6",
"o#	c #7E7C79",
"p#	c #3F3E3D",
"q#	c #6C6B68",
"r#	c #908E89",
"s#	c #484742",
"t#	c #2F361E",
"u#	c #3C4727",
"v#	c #2E3225",
"w#	c #2E3126",
"x#	c #2F3325",
"y#	c #2C3022",
"z#	c #36382F",
"A#	c #6B6963",
"B#	c #8D8C88",
"C#	c #7D7C78",
"D#	c #2B3022",
"E#	c #49562F",
"F#	c #35382D",
"G#	c #898783",
"H#	c #505E33",
"I#	c #525F34",
"J#	c #3D4727",
"K#	c #3A3B31",
"L#	c #82817B",
"M#	c #71706C",
"N#	c #4B4B48",
"O#	c #50504B",
"P#	c #394226",
"Q#	c #515E33",
"R#	c #323825",
"S#	c #6B6A67",
"T#	c #C9C7C1",
"U#	c #AFADA7",
"V#	c #52534F",
"W#	c #343C22",
"X#	c #5C5A57",
"Y#	c #7E7C78",
"Z#	c #303030",
"`#	c #101111",
" $	c #2C3120",
".$	c #536035",
"+$	c #3D3F38",
"@$	c #898884",
"#$	c #585755",
"$$	c #384027",
"%$	c #4C4C48",
"&$	c #8C8B87",
"*$	c #363535",
"=$	c #282E1A",
"-$	c #546234",
";$	c #313824",
">$	c #A5A39E",
",$	c #646361",
"'$	c #242522",
")$	c #313921",
"!$	c #373F22",
"~$	c #4F4E4B",
"{$	c #4D4C4B",
"]$	c #29311C",
"^$	c #394425",
"/$	c #4C4C47",
"($	c #1E2313",
"_$	c #363F22",
":$	c #52524F",
"<$	c #343332",
"[$	c #2B2E21",
"}$	c #4A572F",
"|$	c #333B21",
"1$	c #5A5956",
"2$	c #090A0A",
"3$	c #272D19",
"4$	c #333C21",
"5$	c #B4B2AC",
"6$	c #676663",
"7$	c #373634",
"8$	c #43433F",
"9$	c #B5B3AE",
"0$	c #8C8B86",
"a$	c #2C2C2B",
"b$	c #272E19",
"c$	c #414D2A",
"d$	c #41423A",
"e$	c #94928D",
"f$	c #83817D",
"g$	c #52514E",
"h$	c #4D4C47",
"i$	c #32342A",
"j$	c #4B5930",
"k$	c #3E3F38",
"l$	c #BBB9B3",
"m$	c #3B3F32",
"n$	c #48552E",
"o$	c #B3B1AB",
"p$	c #8E8C88",
"q$	c #585753",
"r$	c #494944",
"s$	c #35392B",
"t$	c #45512D",
"u$	c #484941",
"v$	c #8A8883",
"w$	c #52514F",
"x$	c #2B311F",
"y$	c #3B3C34",
"z$	c #888683",
"A$	c #51504E",
"B$	c #3A3936",
"C$	c #3B4428",
"D$	c #3D4728",
"E$	c #2E3124",
"F$	c #32352B",
"G$	c #2C2E26",
"H$	c #3E492A",
"I$	c #2D3225",
"J$	c #33362B",
"K$	c #2C2F22",
"L$	c #25281D",
"M$	c #363C26",
"N$	c #4F5C33",
"O$	c #515E34",
"P$	c #4F5D33",
"Q$	c #576537",
"                                                                                                                                ",
"                                                                                                                                ",
"                                                                                                                                ",
"                                                                                                                                ",
"                                                                                                                                ",
"                                                                                                                                ",
"                                                                                                                                ",
"                                                                                                                                ",
"                                                                                                                                ",
"                                                                                                                                ",
"                                                                                                                                ",
"                                                                                                                                ",
"                                                                                                                                ",
"                                                                                                                                ",
"                                                                                                                                ",
"                                                                                                                                ",
"                                                                                                                                ",
"                                                                                    . + @ # @ $ %                               ",
"                                                                                  & * = - ; > , ' %                             ",
"                                                                                . ) ! ~ { ] ^ / ( _ :                           ",
"                                                                                < [ } | 1 2 3 4 5 6 7 %                         ",
"                              . @ 8 9                                           0 a } | b c d e f g h i j k l 9                 ",
"                            m n o p q                                           r s ~ t u v w x y z A B C D E F                 ",
"                          m G H I J 9                                       K L M N O P Q R S T U V W W X Y Z `                 ",
"                        .  ...+.@.#.                                  $.%.&.*.=.-.;.>.,.'.).!.~.{.].^./.(._.:.m                 ",
"                        <.[.}.|.1.      $.2.$ 3.3.4.$ 5.          K 6.7.8.9.0.a.b.c.d.e.f.g.h.i.j.k.l.m.n.o.p.`                 ",
"                        q.r.s.t.#.  q L u.v.w.x.y.w.z.A.@ B.3.C.D.E.F.G.H.I.J.K.L.M.N.O.P.h.Q.R.S.T.U.V.W.X.Y.F                 ",
"                      Z.`. +.+++    J @+#+$+%+%+&+w *+=+x.-+y.;+>+,+'+)+!+~+{+]+^+/+(+_+:+<+[+}+|+1+2+1+3+4+F                   ",
"                      }+5+6+7+8+9 9+0+a+b+c+K.d+e+f+g+h+i+j+k+*+l+m+n+o+p+q+m+r+s+*+t+u+v+w+x+F q y+z+A+F                       ",
"                      B+C+D+E+F+G+H+I+J+W V K+.+L+M+N+W O+P+Q+R+S+T+U+V+W+X+Y+Z+`+ @_+.@+@@@#@                                  ",
"                      &.$@%@&@*@=@-@;@J+>@,@'@)@!@~@{@]@^@/@;.(@_@:@<@.+[@,@J+j.f+}@|@1@2@3@4@                                  ",
"                      5@6@7@s+8@9@0@a@,@b@c@].^+d@e@f@g@h@| i@j@k@~.l@m@n@'@o@h@p@J.g@f+q@r@                                    ",
"                          s@t@u@^ v@w@6+x@y@z@|@A@X+B@T+W+C@D@E@K+F@G@H@I@s+J@K@L@M@M@N@O@P@                                    ",
"                            Q@R@S@T@V U@V@W@X@Y@:+Z@`@ #.#+#@###$#*+%#&#r+*#=#-#;#>#I.,#.                                       ",
"                              P@'#)#!#d@~#{#]#^#t+/#(#_#X@:#`@(.<#[#}#^+|#1#2#]#]@j.3#4#                                        ",
"                                5#6#7#8#9#0#V+a#b#c#d#|+e#f#R+e+g#h#h.d ^+:#r+i#r+j##@P@                                        ",
"                                k#l#m#n#o#p#q#r#s#t#4@q u#v#w#v#x#y#z#A#m+h+B#:#C#D#.                                           ",
"                                  E#F#G#c@^+c@X y#.     5@H#y+H#I#$.J#K#L#M#G@N#O#P#                                            ",
"                                  Q#R#S#|#T#U#V#Y.    k#              W#X#Y#Z#`# $.$                                            ",
"                                  &.+$`+<#@$#$$$K                     }+%$_@&$*$=$k#  k#                                        ",
"                                -$;$M#>$,$'$)$&                       !$~$i#].{$]$9                                             ",
"                                ^$/$_@_#o+($$.                        _$:$n#U+<$[$}$                                            ",
"                                |$1$b@q#2$3$k#  k#                    4$1$5$6$7$8$J                                             ",
"                                4$(@9$0$a$b$9                         c$d$e$f$g$h$i$j$                                          ",
"                                &.k$<@l$F@m$n$                        k#B+@#o$p$q$r$s$t$                                        ",
"                                5@6@u$v$N+w$x$F                         5#y$z$F@A$9@B$C$                                        ",
"                                    D$E$F$G$*.m                         9 H$I$J$K$L$M$N$                                        ",
"                                      O$A+P$$.                              O$y+z+y+Q$                                          ",
"                                                                                                                                ",
"                                                                                                                                ",
"                                                                                                                                ",
"                                                                                                                                ",
"                                                                                                                                ",
"                                                                                                                                ",
"                                                                                                                                ",
"                                                                                                                                ",
"                                                                                                                                ",
"                                                                                                                                ",
"                                                                                                                                ",
"                                                                                                                                ",
"                                                                                                                                ",
"                                                                                                                                ",
"                                                                                                                                ",
"                                                                                                                                "};
